# xmcd
#
# Track frame offsets:
#       150
#       10763
#       28705
#       44928
#       55398
#       69400
#       81520
#       91560
#       103573
#       125995
#       144825
#       155295
#       171035
#       181733
#       196718
#
# Disc length: 2754 seconds
#
# Revision: 5
# Processed by: cddbd v1.5.2PL0 Copyright (c) Steve Scherf et al.
# Submitted via: FreeDbEdit v0.1
#
DISCID=c10ac00f
DTITLE=Various Artist - A Country Christmas - All-Time Christmas Favorites
DYEAR=1900
DGENRE=Holiday
TTITLE0=Ricky Van Shelton - Silent Night
TTITLE1=Rosanne Cash - It Came Upon a Midnight Clear
TTITLE2=Doug Stone - O'Little Town of Bethlehem
TTITLE3=Tanya Tucker - Away in a Manger
TTITLE4=Mike Reid - O'Come, O'Come Emmanuel
TTITLE5=Merle Haggard - If We Make It Through December
TTITLE6=Sweethearts of the Rodeo - Jingle Bell Rock
TTITLE7=Vern Gosdin - Joy to the World
TTITLE8=Ricky Skaggs - O'Come All Ye Faithful
TTITLE9=Shelby Lynne - O'Holy Night
TTITLE10=George Jones - Jingle Bells
TTITLE11=Charlie Daniels - Little Folks
TTITLE12=Janie Frickie - What Child Is This?
TTITLE13=Larry Gatlin and The Gatlin Brothers - Sweet Baby Jesus
TTITLE14=Willie Nelson - Santa Claus Is Coming to Town
EXTD=
EXTT0=
EXTT1=
EXTT2=
EXTT3=
EXTT4=
EXTT5=
EXTT6=
EXTT7=
EXTT8=
EXTT9=
EXTT10=
EXTT11=
EXTT12=
EXTT13=
EXTT14=
PLAYORDER=
